{"title":"Ouija House 2018 1080p WEB-DL DD 5.1 x264 [MW]","magnet":"magnet:?xt=urn:btih:8466925716c389f8eb44f4619375b673a1ca394d&dn=Ouija+House+2018+1080p+WEB-DL+DD+5.1+x264+%5BMW%5D&tr=udp%3A%2F%2Ftracker.leechers-paradise.org%3A6969&tr=udp%3A%2F%2Fzer0day.ch%3A1337&tr=udp%3A%2F%2Fopen.demonii.com%3A1337&tr=udp%3A%2F%2Ftracker.coppersurfer.tk%3A6969&tr=udp%3A%2F%2Fexodus.desync.com%3A6969","uploader":"MFreaky","categoryP":"video","categoryS":"hd___movies","size":"1734457070","seeders":"1","leechers":"0","description":" <a href=\"https://pichub.site/image/EcoOv\" rel=\"nofollow\" target=\"_NEW\">https://pichub.site/image/EcoOv</a> <a href=\"\nhttps://pichub.site/image/EcpBd\" rel=\"nofollow\" target=\"_NEW\">\nhttps://pichub.site/image/EcpBd</a> <a href=\"\nhttps://pichub.site/image/Ec269\" rel=\"nofollow\" target=\"_NEW\">\nhttps://pichub.site/image/Ec269</a> <a href=\"\nhttps://pichub.site/image/Eclfu\" rel=\"nofollow\" target=\"_NEW\">\nhttps://pichub.site/image/Eclfu</a> <a href=\"\nhttps://pichub.site/image/EcPrs\" rel=\"nofollow\" target=\"_NEW\">\nhttps://pichub.site/image/EcPrs</a>\r\n\r\nIMDB <a href=\"\nhttps://www.imdb.com/title/tt7375304/\" rel=\"nofollow\" target=\"_NEW\">\nhttps://www.imdb.com/title/tt7375304/</a>\r\n\r\nVideo\r\nFormat                                   : AVC\r\nFormat/Info                              : Advanced Video Codec\r\nFormat profile                           : High@L4.1\r\nFormat settings                          : CABAC / 4 Ref Frames\r\nFormat settings, CABAC                   : Yes\r\nFormat settings, RefFrames               : 4 frames\r\nCodec ID                                 : V_MPEG4/ISO/AVC\r\nDuration                                 : 1 h 35 min\r\nBit rate                                 : 2 200 kb/s\r\nWidth                                    : 1 920 pixels\r\nHeight                                   : 1 080 pixels\r\nDisplay aspect ratio                     : 16:9\r\nFrame rate mode                          : Constant\r\nFrame rate                               : 23.976 (24000/1001) FPS\r\nColor space                              : YUV\r\nChroma subsampling                       : 4:2:0\r\nBit depth                                : 8 bits\r\nScan type                                : Progressive\r\nBits/(Pixel*Frame)                       : 0.044\r\nStream size                              : 1.44 GiB (89%)\r\nWriting library                          : x264 core 155 r2901 7d0ff22\r\n\r\nAudio\r\nFormat                                   : E-AC-3\r\nFormat/Info                              : Enhanced Audio Coding 3\r\nCodec ID                                 : A_EAC3\r\nDuration                                 : 1 h 35 min\r\nBit rate mode                            : Constant\r\nBit rate                                 : 256 kb/s\r\nChannel(s)                               : 6 channels\r\nChannel positions                        : Front: L C R, Side: L R, LFE\r\nSampling rate                            : 48.0 kHz\r\nFrame rate                               : 187.500 FPS (256 SPF)\r\nCompression mode                         : Lossy\r\nStream size                              : 174 MiB (11%)\r\nLanguage                                 : English","last_updated":"2018-09-18T12:04:11.810Z","parsed":{"xt":"urn:btih:8466925716c389f8eb44f4619375b673a1ca394d","dn":"Ouija House 2018 1080p WEB-DL DD 5.1 x264 [MW]","tr":["udp://exodus.desync.com:6969","udp://open.demonii.com:1337","udp://tracker.coppersurfer.tk:6969","udp://tracker.leechers-paradise.org:6969","udp://zer0day.ch:1337"],"infoHash":"8466925716c389f8eb44f4619375b673a1ca394d","infoHashBuffer":{"type":"Buffer","data":[132,102,146,87,22,195,137,248,235,68,244,97,147,117,182,115,161,202,57,77]},"name":"Ouija House 2018 1080p WEB-DL DD 5.1 x264 [MW]","announce":["udp://exodus.desync.com:6969","udp://open.demonii.com:1337","udp://tracker.coppersurfer.tk:6969","udp://tracker.leechers-paradise.org:6969","udp://zer0day.ch:1337"],"urlList":[]}}